<svg width="241" height="120" viewBox="0 0 241 120" fill="none" xmlns="http://www.w3.org/2000/svg">
<rect x="0.5" y="0.5" width="240" height="119" rx="11.5" fill="#171822"/>
<g opacity="0.15">
<path d="M1 107.548C3.20955 107.548 13.7872 57.8316 34.0415 71.8568C41.2005 74.8425 44.2933 76.8305 53.3157 64.4362C56.139 61.1745 63.457 58.095 72.5899 65.923C75.6587 65.1619 84.7051 100.611 94.6175 92.2856C109.486 79.798 106.733 79.1043 115.544 73.5543C130.963 65.923 121.494 104.613 136.519 81.1285C147.484 66.6167 150.919 87.4293 159.599 78.4105C172.365 65.1464 189.793 63.9522 194.704 69.3865C205.306 81.1188 203.104 85.9751 213.016 79.7313C232.841 77.65 231.189 88.0563 240 75.6355" stroke="#4AC49E"/>
<path d="M33.4068 72.2962C13.1525 58.271 3.20955 107.548 1 107.548H240V75.5688C235.044 89.4438 219.074 74.1813 205.306 82.5063C195.945 69.325 189.887 63.148 178.873 67.3105C156.839 75.6379 159.599 82.2185 155.744 81.1285C148.585 79.1043 144.73 72.1668 136.519 81.1285C123.253 100.611 130.412 75.6355 118.848 72.1668C98.4724 82.573 92.4147 101.304 86.9078 90.8981C81.9516 87.3257 75.511 65.0117 72.4422 65.7728C63.3094 57.9448 55.3796 62.5111 52.5562 65.7728C43.5339 78.1671 34.5116 72.2962 33.4068 72.2962Z" fill="url(#paint0_linear_102_2590)"/>
</g>
<rect x="0.5" y="0.5" width="240" height="119" rx="11.5" stroke="#303241"/>
<defs>
<linearGradient id="paint0_linear_102_2590" x1="120.5" y1="54.8236" x2="120.5" y2="107.549" gradientUnits="userSpaceOnUse">
<stop stop-color="#4AC49E" stop-opacity="0.85"/>
<stop offset="1" stop-color="#4AC49E" stop-opacity="0"/>
</linearGradient>
</defs>
</svg>
