<svg width="241" height="120" viewBox="0 0 241 120" fill="none" xmlns="http://www.w3.org/2000/svg">
<rect x="0.5" y="0.5" width="240" height="119" rx="11.5" fill="#171822"/>
<g opacity="0.15">
<path d="M1 105C3.20955 105 13.1525 82.5442 33.4068 97.1745C34.5116 97.1745 43.5339 103.299 52.5562 90.3696C55.3796 86.9672 63.3094 82.2039 72.4422 90.3696C75.511 89.5757 82.2379 84.3813 84.5948 69.9552C89.3821 61.3358 101.314 53.3516 110.741 90.3696C113.073 96.2671 121.494 101.938 136.519 77.4405C139.465 74.6052 146.978 73.2896 153.459 83.9051C166.225 70.0686 192.347 46.955 194.704 65.1919C197.061 83.4287 213.117 75.9661 220.851 69.9552C225.761 62.4699 236.465 48.0438 240 50.2213" stroke="#4AC49E"/>
<path d="M33.4068 97.1745C13.1525 82.5442 3.20955 105 1 105H240V50.2213C236.465 48.0438 225.761 62.4699 220.851 69.9552C213.117 75.9661 197.061 83.4287 194.704 65.1919C192.347 46.955 166.225 70.0687 153.459 83.9051C146.978 73.2896 139.465 74.6052 136.519 77.4405C121.494 101.938 113.073 96.2671 110.741 90.3696C101.314 53.3516 89.3821 61.3358 84.5948 69.9552C82.2379 84.3813 75.511 89.5757 72.4422 90.3696C63.3094 82.2039 55.3796 86.9672 52.5562 90.3696C43.5339 103.299 34.5116 97.1745 33.4068 97.1745Z" fill="url(#paint0_linear_102_2614)"/>
</g>
<rect x="0.5" y="0.5" width="240" height="119" rx="11.5" stroke="#303241"/>
<defs>
<linearGradient id="paint0_linear_102_2614" x1="120.5" y1="50" x2="120.5" y2="105" gradientUnits="userSpaceOnUse">
<stop stop-color="#4AC49E" stop-opacity="0.85"/>
<stop offset="1" stop-color="#4AC49E" stop-opacity="0"/>
</linearGradient>
</defs>
</svg>
