<svg width="241" height="120" viewBox="0 0 241 120" fill="none" xmlns="http://www.w3.org/2000/svg">
<rect x="0.5" y="0.5" width="240" height="119" rx="11.5" fill="#171822"/>
<g opacity="0.15">
<path d="M1 111C3.20955 111 13.1525 93.4436 33.4068 104.882C34.5116 104.882 43.5339 109.67 52.5562 99.5617C55.3796 96.9016 63.3094 93.1776 72.4422 99.5617C75.511 98.941 82.2379 94.8799 84.5948 83.6013C89.3821 76.8625 101.314 70.6203 110.741 99.5617C113.073 104.172 121.494 108.606 136.519 89.4535C139.465 87.2368 146.978 86.2082 153.459 94.5076C166.225 83.69 192.347 65.6194 194.704 79.8773C197.061 94.1352 213.117 88.3008 220.851 83.6013C225.761 77.7492 236.465 66.4706 240 68.173" stroke="#FF5668"/>
<path d="M33.4068 104.882C13.1525 93.4436 3.20955 111 1 111H240V68.173C236.465 66.4706 225.761 77.7492 220.851 83.6013C213.117 88.3008 197.061 94.1352 194.704 79.8773C192.347 65.6194 166.225 83.69 153.459 94.5076C146.978 86.2082 139.465 87.2368 136.519 89.4535C121.494 108.606 113.073 104.172 110.741 99.5617C101.314 70.6203 89.3821 76.8625 84.5948 83.6013C82.2379 94.8799 75.511 98.941 72.4422 99.5617C63.3094 93.1776 55.3796 96.9016 52.5562 99.5617C43.5339 109.67 34.5116 104.882 33.4068 104.882Z" fill="url(#paint0_linear_102_2602)"/>
</g>
<rect x="0.5" y="0.5" width="240" height="119" rx="11.5" stroke="#303241"/>
<defs>
<linearGradient id="paint0_linear_102_2602" x1="120.5" y1="68" x2="120.5" y2="111" gradientUnits="userSpaceOnUse">
<stop stop-color="#FD818D" stop-opacity="0.54"/>
<stop offset="1" stop-color="#FD818D" stop-opacity="0"/>
</linearGradient>
</defs>
</svg>
