<svg width="24" height="24" viewBox="0 0 24 24" fill="none" xmlns="http://www.w3.org/2000/svg">
<path d="M12 24C18.6276 24 24 18.6276 24 12C24 5.3724 18.6276 0 12 0C5.3724 0 0 5.3724 0 12C0 18.6276 5.3724 24 12 24Z" fill="#F3BA2F"/>
<path d="M12 7.30284L8.67072 10.6321L6.73372 8.69484L12 3.42856L17.268 8.69642L15.3309 10.6336L12 7.30284Z" fill="white"/>
<path d="M5.36579 10.0625L3.42857 12L5.36565 13.9368L7.30286 11.9996L5.36579 10.0625Z" fill="white"/>
<path d="M12 16.6971L8.67072 13.3681L6.73097 15.3024L12 20.5714L17.268 15.3036L17.269 15.3026L15.3308 13.3665L12 16.6971Z" fill="white"/>
<path d="M18.6344 10.0636L16.6971 12.0008L18.6343 13.9379L20.5714 12.0007L18.6344 10.0636Z" fill="white"/>
<path d="M13.9655 11.9989H13.9648L13.9666 11.9999L13.9657 12.001L12 13.9667L10.036 12.0024L10.0333 11.9996L10.036 11.9969L12 10.0333L13.9655 11.9989Z" fill="white"/>
</svg>
