<svg width="310" height="222" viewBox="0 0 310 222" fill="none" xmlns="http://www.w3.org/2000/svg">
<line x1="2.15396" y1="195.5" x2="308.5" y2="195.5" stroke="#414955" stroke-linecap="round"/>
<line x1="2.15396" y1="163.5" x2="308.5" y2="163.5" stroke="#313131" stroke-linecap="round" stroke-dasharray="2 2"/>
<line x1="2.15396" y1="133.5" x2="308.5" y2="133.5" stroke="#313131" stroke-linecap="round" stroke-dasharray="2 2"/>
<line x1="2.15396" y1="103.5" x2="308.5" y2="103.5" stroke="#313131" stroke-linecap="round" stroke-dasharray="2 2"/>
<line x1="2.15396" y1="73.5" x2="308.5" y2="73.5" stroke="#313131" stroke-linecap="round" stroke-dasharray="2 2"/>
<line x1="2.15396" y1="43.5" x2="308.5" y2="43.5" stroke="#313131" stroke-linecap="round" stroke-dasharray="2 2"/>
<line x1="2.15396" y1="13.5" x2="308.5" y2="13.5" stroke="#313131" stroke-linecap="round" stroke-dasharray="2 2"/>
<line x1="62.9692" y1="14" x2="62.9692" y2="196" stroke="#313131" stroke-dasharray="2 2"/>
<line x1="124.438" y1="14" x2="124.438" y2="196" stroke="#313131" stroke-dasharray="2 2"/>
<line x1="185.908" y1="14" x2="185.908" y2="196" stroke="#313131" stroke-dasharray="2 2"/>
<line x1="247.377" y1="14" x2="247.377" y2="196" stroke="#313131" stroke-dasharray="2 2"/>
<line x1="308.846" y1="14" x2="308.846" y2="196" stroke="#313131" stroke-dasharray="2 2"/>
<line x1="1.5" y1="14" x2="1.49999" y2="196" stroke="#414955"/>
<path d="M130.412 206.214V207.026H126.1V210.68H129.74V211.492H126.1V216H125.12V206.214H130.412ZM138.94 211.786C138.94 212.122 138.931 212.379 138.912 212.556H132.57C132.598 213.135 132.738 213.629 132.99 214.04C133.242 214.451 133.574 214.763 133.984 214.978C134.395 215.183 134.843 215.286 135.328 215.286C135.963 215.286 136.495 215.132 136.924 214.824C137.363 214.516 137.652 214.101 137.792 213.578H138.828C138.642 214.325 138.24 214.936 137.624 215.412C137.018 215.879 136.252 216.112 135.328 216.112C134.61 216.112 133.966 215.953 133.396 215.636C132.827 215.309 132.379 214.852 132.052 214.264C131.735 213.667 131.576 212.971 131.576 212.178C131.576 211.385 131.735 210.689 132.052 210.092C132.37 209.495 132.813 209.037 133.382 208.72C133.952 208.403 134.6 208.244 135.328 208.244C136.056 208.244 136.691 208.403 137.232 208.72C137.783 209.037 138.203 209.467 138.492 210.008C138.791 210.54 138.94 211.133 138.94 211.786ZM137.946 211.758C137.956 211.189 137.839 210.703 137.596 210.302C137.363 209.901 137.041 209.597 136.63 209.392C136.22 209.187 135.772 209.084 135.286 209.084C134.558 209.084 133.938 209.317 133.424 209.784C132.911 210.251 132.626 210.909 132.57 211.758H137.946ZM141.699 210.05C141.951 209.518 142.339 209.084 142.861 208.748C143.393 208.412 144.019 208.244 144.737 208.244C145.437 208.244 146.063 208.407 146.613 208.734C147.164 209.051 147.593 209.509 147.901 210.106C148.219 210.694 148.377 211.38 148.377 212.164C148.377 212.948 148.219 213.639 147.901 214.236C147.593 214.833 147.159 215.295 146.599 215.622C146.049 215.949 145.428 216.112 144.737 216.112C144.009 216.112 143.379 215.949 142.847 215.622C142.325 215.286 141.942 214.852 141.699 214.32V216H140.733V205.64H141.699V210.05ZM147.383 212.164C147.383 211.529 147.257 210.983 147.005 210.526C146.763 210.059 146.427 209.705 145.997 209.462C145.568 209.219 145.083 209.098 144.541 209.098C144.019 209.098 143.538 209.224 143.099 209.476C142.67 209.728 142.329 210.087 142.077 210.554C141.825 211.021 141.699 211.562 141.699 212.178C141.699 212.794 141.825 213.335 142.077 213.802C142.329 214.269 142.67 214.628 143.099 214.88C143.538 215.132 144.019 215.258 144.541 215.258C145.083 215.258 145.568 215.137 145.997 214.894C146.427 214.642 146.763 214.283 147.005 213.816C147.257 213.34 147.383 212.789 147.383 212.164Z" fill="#DADADA"/>
<path d="M195.682 206.34V216H194.702V208.286L191.258 216H190.544L187.1 208.314V216H186.12V206.34H187.156L190.894 214.712L194.632 206.34H195.682ZM197.457 212.164C197.457 211.38 197.611 210.694 197.919 210.106C198.236 209.509 198.67 209.051 199.221 208.734C199.781 208.407 200.411 208.244 201.111 208.244C201.839 208.244 202.464 208.412 202.987 208.748C203.519 209.084 203.902 209.513 204.135 210.036V208.356H205.115V216H204.135V214.306C203.892 214.829 203.505 215.263 202.973 215.608C202.45 215.944 201.825 216.112 201.097 216.112C200.406 216.112 199.781 215.949 199.221 215.622C198.67 215.295 198.236 214.833 197.919 214.236C197.611 213.639 197.457 212.948 197.457 212.164ZM204.135 212.178C204.135 211.562 204.009 211.021 203.757 210.554C203.505 210.087 203.16 209.728 202.721 209.476C202.292 209.224 201.816 209.098 201.293 209.098C200.752 209.098 200.266 209.219 199.837 209.462C199.408 209.705 199.067 210.059 198.815 210.526C198.572 210.983 198.451 211.529 198.451 212.164C198.451 212.789 198.572 213.34 198.815 213.816C199.067 214.283 199.408 214.642 199.837 214.894C200.266 215.137 200.752 215.258 201.293 215.258C201.816 215.258 202.292 215.132 202.721 214.88C203.16 214.628 203.505 214.269 203.757 213.802C204.009 213.335 204.135 212.794 204.135 212.178ZM208.332 209.714C208.547 209.238 208.874 208.869 209.312 208.608C209.76 208.347 210.306 208.216 210.95 208.216V209.238H210.684C209.975 209.238 209.406 209.429 208.976 209.812C208.547 210.195 208.332 210.834 208.332 211.73V216H207.352V208.356H208.332V209.714Z" fill="#DADADA"/>
<path d="M253.79 213.676H249.338L248.484 216H247.448L251.018 206.34H252.124L255.68 216H254.644L253.79 213.676ZM253.496 212.864L251.564 207.572L249.632 212.864H253.496ZM258.219 210.036C258.461 209.523 258.844 209.098 259.367 208.762C259.899 208.417 260.529 208.244 261.257 208.244C261.947 208.244 262.568 208.407 263.119 208.734C263.679 209.051 264.113 209.509 264.421 210.106C264.738 210.694 264.897 211.38 264.897 212.164C264.897 212.948 264.738 213.639 264.421 214.236C264.113 214.833 263.679 215.295 263.119 215.622C262.568 215.949 261.947 216.112 261.257 216.112C260.538 216.112 259.913 215.944 259.381 215.608C258.849 215.263 258.461 214.833 258.219 214.32V219.612H257.253V208.356H258.219V210.036ZM263.903 212.164C263.903 211.529 263.777 210.983 263.525 210.526C263.282 210.059 262.946 209.705 262.517 209.462C262.087 209.219 261.602 209.098 261.061 209.098C260.538 209.098 260.057 209.224 259.619 209.476C259.189 209.728 258.849 210.087 258.597 210.554C258.345 211.021 258.219 211.562 258.219 212.178C258.219 212.794 258.345 213.335 258.597 213.802C258.849 214.269 259.189 214.628 259.619 214.88C260.057 215.132 260.538 215.258 261.061 215.258C261.602 215.258 262.087 215.137 262.517 214.894C262.946 214.642 263.282 214.283 263.525 213.816C263.777 213.34 263.903 212.789 263.903 212.164ZM267.68 209.714C267.895 209.238 268.221 208.869 268.66 208.608C269.108 208.347 269.654 208.216 270.298 208.216V209.238H270.032C269.323 209.238 268.753 209.429 268.324 209.812C267.895 210.195 267.68 210.834 267.68 211.73V216H266.7V208.356H267.68V209.714Z" fill="#DADADA"/>
<path d="M68.642 206.214V213.62C68.642 214.367 68.4133 214.969 67.956 215.426C67.4987 215.874 66.8873 216.098 66.122 216.098C65.3287 216.098 64.694 215.86 64.218 215.384C63.7513 214.899 63.518 214.245 63.518 213.424H64.512C64.5213 213.956 64.652 214.39 64.904 214.726C65.1653 215.062 65.5713 215.23 66.122 215.23C66.6447 215.23 67.032 215.076 67.284 214.768C67.536 214.46 67.662 214.077 67.662 213.62V206.214H68.642ZM70.6583 212.164C70.6583 211.38 70.8123 210.694 71.1203 210.106C71.4377 209.509 71.8717 209.051 72.4223 208.734C72.9823 208.407 73.6123 208.244 74.3123 208.244C75.0403 208.244 75.6657 208.412 76.1883 208.748C76.7203 209.084 77.103 209.513 77.3363 210.036V208.356H78.3163V216H77.3363V214.306C77.0937 214.829 76.7063 215.263 76.1743 215.608C75.6517 215.944 75.0263 216.112 74.2983 216.112C73.6077 216.112 72.9823 215.949 72.4223 215.622C71.8717 215.295 71.4377 214.833 71.1203 214.236C70.8123 213.639 70.6583 212.948 70.6583 212.164ZM77.3363 212.178C77.3363 211.562 77.2103 211.021 76.9583 210.554C76.7063 210.087 76.361 209.728 75.9223 209.476C75.493 209.224 75.017 209.098 74.4943 209.098C73.953 209.098 73.4677 209.219 73.0383 209.462C72.609 209.705 72.2683 210.059 72.0163 210.526C71.7737 210.983 71.6523 211.529 71.6523 212.164C71.6523 212.789 71.7737 213.34 72.0163 213.816C72.2683 214.283 72.609 214.642 73.0383 214.894C73.4677 215.137 73.953 215.258 74.4943 215.258C75.017 215.258 75.493 215.132 75.9223 214.88C76.361 214.628 76.7063 214.269 76.9583 213.802C77.2103 213.335 77.3363 212.794 77.3363 212.178ZM84.1376 208.216C85.0523 208.216 85.7989 208.501 86.3776 209.07C86.9563 209.63 87.2456 210.447 87.2456 211.52V216H86.2796V211.632C86.2796 210.801 86.0696 210.167 85.6496 209.728C85.2389 209.289 84.6743 209.07 83.9556 209.07C83.2183 209.07 82.6303 209.303 82.1916 209.77C81.7529 210.237 81.5336 210.923 81.5336 211.828V216H80.5536V208.356H81.5336V209.658C81.7763 209.191 82.1263 208.837 82.5836 208.594C83.0409 208.342 83.5589 208.216 84.1376 208.216Z" fill="#DADADA"/>
<path d="M9.498 216H8.518L3.1 207.768V216H2.12V206.214H3.1L8.518 214.432V206.214H9.498V216ZM15.0637 216.112C14.345 216.112 13.6963 215.953 13.1177 215.636C12.5483 215.309 12.0957 214.852 11.7597 214.264C11.433 213.667 11.2697 212.971 11.2697 212.178C11.2697 211.385 11.4377 210.694 11.7737 210.106C12.1097 209.509 12.567 209.051 13.1457 208.734C13.7243 208.407 14.373 208.244 15.0917 208.244C15.8103 208.244 16.459 208.407 17.0377 208.734C17.6257 209.051 18.083 209.509 18.4097 210.106C18.7457 210.694 18.9137 211.385 18.9137 212.178C18.9137 212.962 18.7457 213.653 18.4097 214.25C18.0737 214.847 17.6117 215.309 17.0237 215.636C16.4357 215.953 15.7823 216.112 15.0637 216.112ZM15.0637 215.258C15.5677 215.258 16.0343 215.146 16.4637 214.922C16.893 214.689 17.2383 214.343 17.4997 213.886C17.7703 213.419 17.9057 212.85 17.9057 212.178C17.9057 211.506 17.775 210.941 17.5137 210.484C17.2523 210.017 16.907 209.672 16.4777 209.448C16.0483 209.215 15.5817 209.098 15.0777 209.098C14.5737 209.098 14.107 209.215 13.6777 209.448C13.2483 209.672 12.903 210.017 12.6417 210.484C12.3897 210.941 12.2637 211.506 12.2637 212.178C12.2637 212.85 12.3897 213.419 12.6417 213.886C12.903 214.343 13.2437 214.689 13.6637 214.922C14.093 215.146 14.5597 215.258 15.0637 215.258ZM23.4161 215.048L25.9921 208.356H27.0281L23.9621 216H22.8561L19.7901 208.356H20.8401L23.4161 215.048Z" fill="#DADADA"/>
<g filter="url(#filter0_d_102_2649)">
<rect x="165.136" y="15" width="40.5435" height="25" rx="6" fill="#414955"/>
</g>
<path d="M1.65396 176C23.8825 176 29.8101 114.904 51.7422 114.904C73.6743 114.904 68.0431 67.9067 90.2716 67.9067C112.5 67.9067 91.4571 118.88 132.061 118.88C172.665 118.88 157.253 52 186.891 52C216.529 52 234.016 52 261.579 52C289.143 52 283.511 99.3586 300.405 99.3586C303.746 99.3586 306.589 101.225 309 103.751" stroke="#2B3FF2" stroke-width="2" stroke-linecap="round"/>
<path d="M51.7422 114.904C29.8101 114.904 23.8825 176 1.65396 176V195H309V103.751C306.589 101.225 303.746 99.3586 300.405 99.3586C283.511 99.3586 289.143 52 261.579 52H186.891C157.253 52 172.665 118.88 132.061 118.88C91.4571 118.88 112.5 67.9067 90.2716 67.9067C68.0431 67.9067 73.6743 114.904 51.7422 114.904Z" fill="url(#paint0_linear_102_2649)"/>
<path d="M2.30789 119.73C24.4846 119.73 22.4147 146 44.2957 146C66.1767 146 67.9509 85.4324 90.1276 85.4324C112.304 85.4324 96.0413 85.4324 136.551 85.4324C166.444 85.4324 159.023 109.514 188.592 109.514C218.161 109.514 231.171 38 258.67 38C286.169 38 281.438 73.027 298.293 73.027C301.626 73.027 308.346 67.9189 308.346 51.5" stroke="#8EF27E" stroke-width="2" stroke-linecap="round"/>
<path d="M44.2957 146C22.4147 146 24.4846 119.73 2.30789 119.73V195H308.346V51.5C308.346 67.9189 301.626 73.027 298.293 73.027C281.438 73.027 286.169 38 258.67 38C231.171 38 218.161 109.514 188.592 109.514C159.023 109.514 167.425 85.4324 136.551 85.4324H90.1276C67.9509 85.4324 66.1767 146 44.2957 146Z" fill="url(#paint1_linear_102_2649)"/>
<g filter="url(#filter1_d_102_2649)">
<ellipse cx="185.735" cy="51.5" rx="4.25053" ry="6.5" fill="#2B3FF2"/>
</g>
<path d="M188.331 51.5C188.331 52.8527 187.971 54.0314 187.441 54.8418C186.905 55.661 186.28 56 185.735 56C185.189 56 184.564 55.661 184.028 54.8418C183.498 54.0314 183.138 52.8527 183.138 51.5C183.138 50.1473 183.498 48.9686 184.028 48.1582C184.564 47.339 185.189 47 185.735 47C186.28 47 186.905 47.339 187.441 48.1582C187.971 48.9686 188.331 50.1473 188.331 51.5Z" fill="#2B3FF2" stroke="#1A2028" stroke-width="2"/>
<path d="M168.777 24.152V23.396H170.817V32H169.965V24.152H168.777ZM172.521 31.34C173.993 30.236 175.129 29.248 175.929 28.376C176.737 27.496 177.141 26.636 177.141 25.796C177.141 25.244 177.001 24.804 176.721 24.476C176.449 24.14 176.001 23.972 175.377 23.972C174.769 23.972 174.297 24.164 173.961 24.548C173.633 24.924 173.449 25.428 173.409 26.06H172.593C172.641 25.172 172.913 24.484 173.409 23.996C173.913 23.5 174.569 23.252 175.377 23.252C176.153 23.252 176.781 23.472 177.261 23.912C177.741 24.344 177.981 24.96 177.981 25.76C177.981 26.728 177.577 27.668 176.769 28.58C175.969 29.484 174.981 30.368 173.805 31.232H178.245V31.94H172.521V31.34ZM180.505 30.608L179.257 33.752H178.681L179.569 30.608H180.505ZM187.055 24.116H182.663V27.188C182.863 26.908 183.155 26.68 183.539 26.504C183.923 26.32 184.339 26.228 184.787 26.228C185.443 26.228 185.979 26.364 186.395 26.636C186.811 26.9 187.111 27.248 187.295 27.68C187.479 28.104 187.571 28.56 187.571 29.048C187.571 29.608 187.463 30.116 187.247 30.572C187.039 31.02 186.715 31.376 186.275 31.64C185.843 31.904 185.303 32.036 184.655 32.036C183.831 32.036 183.163 31.824 182.651 31.4C182.139 30.968 181.827 30.388 181.715 29.66H182.543C182.647 30.188 182.887 30.596 183.263 30.884C183.639 31.172 184.103 31.316 184.655 31.316C185.351 31.316 185.875 31.112 186.227 30.704C186.587 30.288 186.767 29.74 186.767 29.06C186.767 28.396 186.587 27.88 186.227 27.512C185.867 27.136 185.351 26.948 184.679 26.948C184.215 26.948 183.807 27.056 183.455 27.272C183.103 27.488 182.843 27.78 182.675 28.148H181.883V23.384H187.055V24.116ZM193.981 25.496C193.805 24.456 193.201 23.936 192.169 23.936C191.385 23.936 190.797 24.24 190.405 24.848C190.013 25.456 189.833 26.452 189.865 27.836C190.025 27.356 190.329 26.98 190.777 26.708C191.233 26.428 191.753 26.288 192.337 26.288C193.177 26.288 193.841 26.548 194.329 27.068C194.825 27.58 195.073 28.288 195.073 29.192C195.073 29.72 194.969 30.2 194.761 30.632C194.561 31.056 194.249 31.396 193.825 31.652C193.409 31.908 192.889 32.036 192.265 32.036C191.073 32.036 190.249 31.656 189.793 30.896C189.345 30.136 189.121 29.06 189.121 27.668C189.121 24.708 190.137 23.228 192.169 23.228C192.937 23.228 193.541 23.44 193.981 23.864C194.421 24.28 194.681 24.824 194.761 25.496H193.981ZM192.181 27.008C191.805 27.008 191.449 27.084 191.113 27.236C190.777 27.388 190.501 27.62 190.285 27.932C190.077 28.236 189.973 28.612 189.973 29.06C189.973 29.708 190.165 30.248 190.549 30.68C190.933 31.112 191.493 31.328 192.229 31.328C192.845 31.328 193.337 31.14 193.705 30.764C194.073 30.388 194.257 29.876 194.257 29.228C194.257 28.532 194.077 27.988 193.717 27.596C193.357 27.204 192.845 27.008 192.181 27.008ZM170.301 47.708C170.389 48.228 170.589 48.628 170.901 48.908C171.213 49.188 171.641 49.328 172.185 49.328C172.937 49.328 173.493 49.036 173.853 48.452C174.221 47.86 174.389 46.884 174.357 45.524C174.205 45.964 173.913 46.312 173.481 46.568C173.057 46.816 172.569 46.94 172.017 46.94C171.177 46.94 170.501 46.688 169.989 46.184C169.485 45.68 169.233 44.98 169.233 44.084C169.233 43.548 169.337 43.064 169.545 42.632C169.753 42.2 170.069 41.86 170.493 41.612C170.917 41.364 171.437 41.24 172.053 41.24C173.189 41.24 173.981 41.612 174.429 42.356C174.877 43.092 175.101 44.152 175.101 45.536C175.101 47.032 174.877 48.156 174.429 48.908C173.989 49.66 173.229 50.036 172.149 50.036C171.357 50.036 170.741 49.824 170.301 49.4C169.861 48.968 169.601 48.404 169.521 47.708H170.301ZM172.149 46.22C172.525 46.22 172.869 46.144 173.181 45.992C173.501 45.832 173.757 45.6 173.949 45.296C174.141 44.992 174.237 44.628 174.237 44.204C174.237 43.548 174.049 43.008 173.673 42.584C173.305 42.16 172.773 41.948 172.077 41.948C171.461 41.948 170.965 42.14 170.589 42.524C170.221 42.908 170.037 43.42 170.037 44.06C170.037 44.732 170.221 45.26 170.589 45.644C170.957 46.028 171.477 46.22 172.149 46.22ZM177.009 50.06C176.833 50.06 176.685 50 176.565 49.88C176.453 49.76 176.397 49.612 176.397 49.436C176.397 49.26 176.453 49.116 176.565 49.004C176.685 48.884 176.833 48.824 177.009 48.824C177.177 48.824 177.317 48.884 177.429 49.004C177.549 49.116 177.609 49.26 177.609 49.436C177.609 49.612 177.549 49.76 177.429 49.88C177.317 50 177.177 50.06 177.009 50.06ZM179.981 47.708C180.069 48.228 180.269 48.628 180.581 48.908C180.893 49.188 181.321 49.328 181.865 49.328C182.617 49.328 183.173 49.036 183.533 48.452C183.901 47.86 184.069 46.884 184.037 45.524C183.885 45.964 183.593 46.312 183.161 46.568C182.737 46.816 182.249 46.94 181.697 46.94C180.857 46.94 180.181 46.688 179.669 46.184C179.165 45.68 178.913 44.98 178.913 44.084C178.913 43.548 179.017 43.064 179.225 42.632C179.433 42.2 179.749 41.86 180.173 41.612C180.597 41.364 181.117 41.24 181.733 41.24C182.869 41.24 183.661 41.612 184.109 42.356C184.557 43.092 184.781 44.152 184.781 45.536C184.781 47.032 184.557 48.156 184.109 48.908C183.669 49.66 182.909 50.036 181.829 50.036C181.037 50.036 180.421 49.824 179.981 49.4C179.541 48.968 179.281 48.404 179.201 47.708H179.981ZM181.829 46.22C182.205 46.22 182.549 46.144 182.861 45.992C183.181 45.832 183.437 45.6 183.629 45.296C183.821 44.992 183.917 44.628 183.917 44.204C183.917 43.548 183.729 43.008 183.353 42.584C182.985 42.16 182.453 41.948 181.757 41.948C181.141 41.948 180.645 42.14 180.269 42.524C179.901 42.908 179.717 43.42 179.717 44.06C179.717 44.732 179.901 45.26 180.269 45.644C180.637 46.028 181.157 46.22 181.829 46.22ZM187.481 47.708C187.569 48.228 187.769 48.628 188.081 48.908C188.393 49.188 188.821 49.328 189.365 49.328C190.117 49.328 190.673 49.036 191.033 48.452C191.401 47.86 191.569 46.884 191.537 45.524C191.385 45.964 191.093 46.312 190.661 46.568C190.237 46.816 189.749 46.94 189.197 46.94C188.357 46.94 187.681 46.688 187.169 46.184C186.665 45.68 186.413 44.98 186.413 44.084C186.413 43.548 186.517 43.064 186.725 42.632C186.933 42.2 187.249 41.86 187.673 41.612C188.097 41.364 188.617 41.24 189.233 41.24C190.369 41.24 191.161 41.612 191.609 42.356C192.057 43.092 192.281 44.152 192.281 45.536C192.281 47.032 192.057 48.156 191.609 48.908C191.169 49.66 190.409 50.036 189.329 50.036C188.537 50.036 187.921 49.824 187.481 49.4C187.041 48.968 186.781 48.404 186.701 47.708H187.481ZM189.329 46.22C189.705 46.22 190.049 46.144 190.361 45.992C190.681 45.832 190.937 45.6 191.129 45.296C191.321 44.992 191.417 44.628 191.417 44.204C191.417 43.548 191.229 43.008 190.853 42.584C190.485 42.16 189.953 41.948 189.257 41.948C188.641 41.948 188.145 42.14 187.769 42.524C187.401 42.908 187.217 43.42 187.217 44.06C187.217 44.732 187.401 45.26 187.769 45.644C188.137 46.028 188.657 46.22 189.329 46.22Z" fill="white"/>
<defs>
<filter id="filter0_d_102_2649" x="150.136" y="0" width="70.5435" height="55" filterUnits="userSpaceOnUse" color-interpolation-filters="sRGB">
<feFlood flood-opacity="0" result="BackgroundImageFix"/>
<feColorMatrix in="SourceAlpha" type="matrix" values="0 0 0 0 0 0 0 0 0 0 0 0 0 0 0 0 0 0 127 0" result="hardAlpha"/>
<feOffset/>
<feGaussianBlur stdDeviation="7.5"/>
<feComposite in2="hardAlpha" operator="out"/>
<feColorMatrix type="matrix" values="0 0 0 0 1 0 0 0 0 1 0 0 0 0 1 0 0 0 0.15 0"/>
<feBlend mode="normal" in2="BackgroundImageFix" result="effect1_dropShadow_102_2649"/>
<feBlend mode="normal" in="SourceGraphic" in2="effect1_dropShadow_102_2649" result="shape"/>
</filter>
<filter id="filter1_d_102_2649" x="173.484" y="41" width="24.501" height="29" filterUnits="userSpaceOnUse" color-interpolation-filters="sRGB">
<feFlood flood-opacity="0" result="BackgroundImageFix"/>
<feColorMatrix in="SourceAlpha" type="matrix" values="0 0 0 0 0 0 0 0 0 0 0 0 0 0 0 0 0 0 127 0" result="hardAlpha"/>
<feOffset dy="4"/>
<feGaussianBlur stdDeviation="4"/>
<feComposite in2="hardAlpha" operator="out"/>
<feColorMatrix type="matrix" values="0 0 0 0 0.168627 0 0 0 0 0.247059 0 0 0 0 0.94902 0 0 0 0.5 0"/>
<feBlend mode="normal" in2="BackgroundImageFix" result="effect1_dropShadow_102_2649"/>
<feBlend mode="normal" in="SourceGraphic" in2="effect1_dropShadow_102_2649" result="shape"/>
</filter>
<linearGradient id="paint0_linear_102_2649" x1="155.327" y1="52" x2="155.327" y2="195" gradientUnits="userSpaceOnUse">
<stop stop-color="#2B3FF2" stop-opacity="0.15"/>
<stop offset="1" stop-color="#2B3FF2" stop-opacity="0"/>
</linearGradient>
<linearGradient id="paint1_linear_102_2649" x1="155.327" y1="38" x2="155.327" y2="195" gradientUnits="userSpaceOnUse">
<stop stop-color="#8EF27E" stop-opacity="0.15"/>
<stop offset="1" stop-color="#8EF27E" stop-opacity="0"/>
</linearGradient>
</defs>
</svg>
