<svg width="112" height="112" viewBox="0 0 112 112" fill="none" xmlns="http://www.w3.org/2000/svg">
<circle cx="56" cy="56" r="25" stroke="#414955" stroke-width="2"/>
<g filter="url(#filter0_d_102_2687)">
<path d="M82 56C82 61.1423 80.4751 66.1691 77.6182 70.4448C74.7613 74.7205 70.7006 78.053 65.9498 80.0209C61.1989 81.9887 55.9712 82.5036 50.9277 81.5004C45.8842 80.4972 41.2514 78.0209 37.6152 74.3848C33.9791 70.7486 31.5028 66.1158 30.4996 61.0723C29.4964 56.0288 30.0113 50.8011 31.9791 46.0502C33.947 41.2993 37.2795 37.2387 41.5552 34.3818C45.8309 31.5249 50.8577 30 56 30" stroke="url(#paint0_angular_102_2687)" stroke-width="10" stroke-linecap="round"/>
</g>
<defs>
<filter id="filter0_d_102_2687" x="0" y="0" width="112" height="112" filterUnits="userSpaceOnUse" color-interpolation-filters="sRGB">
<feFlood flood-opacity="0" result="BackgroundImageFix"/>
<feColorMatrix in="SourceAlpha" type="matrix" values="0 0 0 0 0 0 0 0 0 0 0 0 0 0 0 0 0 0 127 0" result="hardAlpha"/>
<feOffset/>
<feGaussianBlur stdDeviation="12.5"/>
<feComposite in2="hardAlpha" operator="out"/>
<feColorMatrix type="matrix" values="0 0 0 0 0.168627 0 0 0 0 0.247059 0 0 0 0 0.94902 0 0 0 0.5 0"/>
<feBlend mode="normal" in2="BackgroundImageFix" result="effect1_dropShadow_102_2687"/>
<feBlend mode="normal" in="SourceGraphic" in2="effect1_dropShadow_102_2687" result="shape"/>
</filter>
<radialGradient id="paint0_angular_102_2687" cx="0" cy="0" r="1" gradientUnits="userSpaceOnUse" gradientTransform="translate(56 56) rotate(-1.16914) scale(26.8266)">
<stop stop-color="#2B3FF2"/>
<stop offset="0.760417" stop-color="#AEB5F1"/>
</radialGradient>
</defs>
</svg>
