<svg width="1734" height="1040" viewBox="0 0 1734 1040" fill="none" xmlns="http://www.w3.org/2000/svg">
<g clip-path="url(#clip0_102_1721)">
<rect width="1734" height="1040" fill="#0D0F1C"/>
<path d="M1730 0V1040H-4L1730 0Z" fill="#0A0C16"/>
<g opacity="0.6">
<ellipse cx="175.207" cy="47.5952" rx="1.01092" ry="1.1062" fill="white" fill-opacity="0.6"/>
<ellipse cx="326.833" cy="47.5952" rx="1.01096" ry="1.1062" fill="white" fill-opacity="0.6"/>
<ellipse cx="478.477" cy="47.5952" rx="1.01092" ry="1.1062" fill="white" fill-opacity="0.6"/>
<ellipse cx="630.121" cy="47.5952" rx="1.01092" ry="1.1062" fill="white" fill-opacity="0.6"/>
<ellipse cx="781.754" cy="47.5952" rx="1.01096" ry="1.1062" fill="white" fill-opacity="0.6"/>
<ellipse cx="933.392" cy="47.5952" rx="1.01092" ry="1.1062" fill="white" fill-opacity="0.6"/>
<ellipse cx="1085.04" cy="47.5952" rx="1.01096" ry="1.1062" fill="white" fill-opacity="0.6"/>
<ellipse cx="1236.67" cy="47.5952" rx="1.01089" ry="1.1062" fill="white" fill-opacity="0.6"/>
<ellipse cx="1388.31" cy="47.5952" rx="1.01089" ry="1.1062" fill="white" fill-opacity="0.6"/>
<ellipse cx="1539.95" cy="47.5952" rx="1.01096" ry="1.1062" fill="white" fill-opacity="0.6"/>
<ellipse cx="144.871" cy="158.218" rx="1.01093" ry="1.10626" fill="white" fill-opacity="0.6"/>
<ellipse cx="296.515" cy="158.218" rx="1.01092" ry="1.10626" fill="white" fill-opacity="0.6"/>
<ellipse cx="448.153" cy="158.218" rx="1.01092" ry="1.10626" fill="white" fill-opacity="0.6"/>
<ellipse cx="599.785" cy="158.218" rx="1.01096" ry="1.10626" fill="white" fill-opacity="0.6"/>
<ellipse cx="751.43" cy="158.218" rx="1.01092" ry="1.10626" fill="white" fill-opacity="0.6"/>
<ellipse cx="903.073" cy="158.218" rx="1.01092" ry="1.10626" fill="white" fill-opacity="0.6"/>
<ellipse cx="1054.7" cy="158.218" rx="1.01089" ry="1.10626" fill="white" fill-opacity="0.6"/>
<ellipse cx="1206.34" cy="158.218" rx="1.01096" ry="1.10626" fill="white" fill-opacity="0.6"/>
<ellipse cx="1357.99" cy="158.218" rx="1.01089" ry="1.10626" fill="white" fill-opacity="0.6"/>
<ellipse cx="1509.61" cy="158.218" rx="1.01089" ry="1.10626" fill="white" fill-opacity="0.6"/>
<ellipse cx="175.207" cy="268.84" rx="1.01092" ry="1.1062" fill="white" fill-opacity="0.6"/>
<ellipse cx="326.833" cy="268.84" rx="1.01096" ry="1.1062" fill="white" fill-opacity="0.6"/>
<ellipse cx="478.477" cy="268.84" rx="1.01092" ry="1.1062" fill="white" fill-opacity="0.6"/>
<ellipse cx="630.121" cy="268.84" rx="1.01092" ry="1.1062" fill="white" fill-opacity="0.6"/>
<ellipse cx="781.754" cy="268.84" rx="1.01096" ry="1.1062" fill="white" fill-opacity="0.6"/>
<ellipse cx="933.392" cy="268.84" rx="1.01092" ry="1.1062" fill="white" fill-opacity="0.6"/>
<ellipse cx="1085.04" cy="268.84" rx="1.01096" ry="1.1062" fill="white" fill-opacity="0.6"/>
<ellipse cx="1236.67" cy="268.84" rx="1.01089" ry="1.1062" fill="white" fill-opacity="0.6"/>
<ellipse cx="1388.31" cy="268.84" rx="1.01089" ry="1.1062" fill="white" fill-opacity="0.6"/>
<ellipse cx="1539.95" cy="268.84" rx="1.01096" ry="1.1062" fill="white" fill-opacity="0.6"/>
<ellipse cx="124.655" cy="381.674" rx="1.01092" ry="1.10623" fill="white" fill-opacity="0.6"/>
<ellipse cx="276.299" cy="381.674" rx="1.01092" ry="1.10623" fill="white" fill-opacity="0.6"/>
<ellipse cx="427.943" cy="381.674" rx="1.01091" ry="1.10623" fill="white" fill-opacity="0.6"/>
<ellipse cx="579.569" cy="381.674" rx="1.01098" ry="1.10623" fill="white" fill-opacity="0.6"/>
<ellipse cx="731.213" cy="381.674" rx="1.01092" ry="1.10623" fill="white" fill-opacity="0.6"/>
<ellipse cx="882.858" cy="381.674" rx="1.01092" ry="1.10623" fill="white" fill-opacity="0.6"/>
<ellipse cx="1034.48" cy="381.674" rx="1.01099" ry="1.10623" fill="white" fill-opacity="0.6"/>
<ellipse cx="1186.13" cy="381.674" rx="1.01089" ry="1.10623" fill="white" fill-opacity="0.6"/>
<ellipse cx="1337.77" cy="381.674" rx="1.01089" ry="1.10623" fill="white" fill-opacity="0.6"/>
<ellipse cx="1489.4" cy="381.674" rx="1.01089" ry="1.10623" fill="white" fill-opacity="0.6"/>
<ellipse cx="185.315" cy="492.296" rx="1.01092" ry="1.10623" fill="white" fill-opacity="0.6"/>
<ellipse cx="336.959" cy="492.296" rx="1.01094" ry="1.10623" fill="white" fill-opacity="0.6"/>
<ellipse cx="488.585" cy="492.296" rx="1.01098" ry="1.10623" fill="white" fill-opacity="0.6"/>
<ellipse cx="640.229" cy="492.296" rx="1.01092" ry="1.10623" fill="white" fill-opacity="0.6"/>
<ellipse cx="791.874" cy="492.296" rx="1.01092" ry="1.10623" fill="white" fill-opacity="0.6"/>
<ellipse cx="943.5" cy="492.296" rx="1.01099" ry="1.10623" fill="white" fill-opacity="0.6"/>
<ellipse cx="1095.14" cy="492.296" rx="1.01079" ry="1.10623" fill="white" fill-opacity="0.6"/>
<ellipse cx="1246.79" cy="492.296" rx="1.01096" ry="1.10623" fill="white" fill-opacity="0.6"/>
<ellipse cx="1398.41" cy="492.296" rx="1.01096" ry="1.10623" fill="white" fill-opacity="0.6"/>
<ellipse cx="165.099" cy="602.918" rx="1.01092" ry="1.1062" fill="white" fill-opacity="0.6"/>
<ellipse cx="316.725" cy="602.918" rx="1.0109" ry="1.1062" fill="white" fill-opacity="0.6"/>
<ellipse cx="468.369" cy="602.918" rx="1.01092" ry="1.1062" fill="white" fill-opacity="0.6"/>
<ellipse cx="620.013" cy="602.918" rx="1.01099" ry="1.1062" fill="white" fill-opacity="0.6"/>
<ellipse cx="771.646" cy="602.918" rx="1.01092" ry="1.1062" fill="white" fill-opacity="0.6"/>
<ellipse cx="923.284" cy="602.918" rx="1.01082" ry="1.1062" fill="white" fill-opacity="0.6"/>
<ellipse cx="1074.93" cy="602.918" rx="1.01103" ry="1.1062" fill="white" fill-opacity="0.6"/>
<ellipse cx="1226.56" cy="602.918" rx="1.01096" ry="1.1062" fill="white" fill-opacity="0.6"/>
<ellipse cx="1378.2" cy="602.918" rx="1.01096" ry="1.1062" fill="white" fill-opacity="0.6"/>
<ellipse cx="1529.84" cy="602.918" rx="1.01089" ry="1.1062" fill="white" fill-opacity="0.6"/>
<ellipse cx="225.747" cy="713.541" rx="1.01093" ry="1.1062" fill="white" fill-opacity="0.6"/>
<ellipse cx="377.385" cy="713.541" rx="1.01092" ry="1.1062" fill="white" fill-opacity="0.6"/>
<ellipse cx="529.029" cy="713.541" rx="1.01098" ry="1.1062" fill="white" fill-opacity="0.6"/>
<ellipse cx="680.661" cy="713.541" rx="1.01092" ry="1.1062" fill="white" fill-opacity="0.6"/>
<ellipse cx="832.305" cy="713.541" rx="1.01089" ry="1.1062" fill="white" fill-opacity="0.6"/>
<ellipse cx="983.944" cy="713.541" rx="1.01103" ry="1.1062" fill="white" fill-opacity="0.6"/>
<ellipse cx="1135.58" cy="713.541" rx="1.01096" ry="1.1062" fill="white" fill-opacity="0.6"/>
<ellipse cx="1287.22" cy="713.541" rx="1.01089" ry="1.1062" fill="white" fill-opacity="0.6"/>
<ellipse cx="1438.86" cy="713.541" rx="1.01089" ry="1.1062" fill="white" fill-opacity="0.6"/>
<ellipse cx="1590.49" cy="713.541" rx="1.01123" ry="1.1062" fill="white" fill-opacity="0.6"/>
<ellipse cx="144.871" cy="824.163" rx="1.01093" ry="1.10619" fill="white" fill-opacity="0.6"/>
<ellipse cx="296.515" cy="824.163" rx="1.01092" ry="1.10619" fill="white" fill-opacity="0.6"/>
<ellipse cx="448.153" cy="824.163" rx="1.01092" ry="1.10619" fill="white" fill-opacity="0.6"/>
<ellipse cx="599.785" cy="824.163" rx="1.01096" ry="1.10619" fill="white" fill-opacity="0.6"/>
<ellipse cx="751.43" cy="824.163" rx="1.01092" ry="1.10619" fill="white" fill-opacity="0.6"/>
<ellipse cx="903.073" cy="824.163" rx="1.01092" ry="1.10619" fill="white" fill-opacity="0.6"/>
<ellipse cx="1054.7" cy="824.163" rx="1.01089" ry="1.10619" fill="white" fill-opacity="0.6"/>
<ellipse cx="1206.34" cy="824.163" rx="1.01096" ry="1.10619" fill="white" fill-opacity="0.6"/>
<ellipse cx="1357.99" cy="824.163" rx="1.01089" ry="1.10619" fill="white" fill-opacity="0.6"/>
<ellipse cx="1509.61" cy="824.163" rx="1.01089" ry="1.10619" fill="white" fill-opacity="0.6"/>
<ellipse cx="175.207" cy="934.785" rx="1.01092" ry="1.10619" fill="white" fill-opacity="0.6"/>
<ellipse cx="326.833" cy="934.785" rx="1.01096" ry="1.10619" fill="white" fill-opacity="0.6"/>
<ellipse cx="478.477" cy="934.785" rx="1.01092" ry="1.10619" fill="white" fill-opacity="0.6"/>
<ellipse cx="630.121" cy="934.785" rx="1.01092" ry="1.10619" fill="white" fill-opacity="0.6"/>
<ellipse cx="781.754" cy="934.785" rx="1.01096" ry="1.10619" fill="white" fill-opacity="0.6"/>
<ellipse cx="933.392" cy="934.785" rx="1.01092" ry="1.10619" fill="white" fill-opacity="0.6"/>
<ellipse cx="1085.04" cy="934.785" rx="1.01096" ry="1.10619" fill="white" fill-opacity="0.6"/>
<ellipse cx="1236.67" cy="934.785" rx="1.01089" ry="1.10619" fill="white" fill-opacity="0.6"/>
<ellipse cx="1388.31" cy="934.785" rx="1.01089" ry="1.10619" fill="white" fill-opacity="0.6"/>
<ellipse cx="1539.95" cy="934.785" rx="1.01096" ry="1.10619" fill="white" fill-opacity="0.6"/>
<ellipse cx="225.74" cy="58.6575" rx="1.01093" ry="1.10626" fill="white" fill-opacity="0.6"/>
<ellipse cx="377.366" cy="58.6575" rx="1.01092" ry="1.10626" fill="white" fill-opacity="0.6"/>
<ellipse cx="529.01" cy="58.6575" rx="1.01098" ry="1.10626" fill="white" fill-opacity="0.6"/>
<ellipse cx="680.654" cy="58.6575" rx="1.01092" ry="1.10626" fill="white" fill-opacity="0.6"/>
<ellipse cx="832.286" cy="58.6575" rx="1.01092" ry="1.10626" fill="white" fill-opacity="0.6"/>
<ellipse cx="983.924" cy="58.6575" rx="1.01103" ry="1.10626" fill="white" fill-opacity="0.6"/>
<ellipse cx="1135.57" cy="58.6575" rx="1.01096" ry="1.10626" fill="white" fill-opacity="0.6"/>
<ellipse cx="1287.2" cy="58.6575" rx="1.01096" ry="1.10626" fill="white" fill-opacity="0.6"/>
<ellipse cx="1438.84" cy="58.6575" rx="1.01089" ry="1.10626" fill="white" fill-opacity="0.6"/>
<ellipse cx="1590.48" cy="58.6575" rx="1.0113" ry="1.10626" fill="white" fill-opacity="0.6"/>
<ellipse cx="195.404" cy="169.28" rx="1.01092" ry="1.10626" fill="white" fill-opacity="0.6"/>
<ellipse cx="347.048" cy="169.28" rx="1.01092" ry="1.10626" fill="white" fill-opacity="0.6"/>
<ellipse cx="498.686" cy="169.28" rx="1.01089" ry="1.10626" fill="white" fill-opacity="0.6"/>
<ellipse cx="650.318" cy="169.28" rx="1.01092" ry="1.10626" fill="white" fill-opacity="0.6"/>
<ellipse cx="801.962" cy="169.28" rx="1.01096" ry="1.10626" fill="white" fill-opacity="0.6"/>
<ellipse cx="953.606" cy="169.28" rx="1.01096" ry="1.10626" fill="white" fill-opacity="0.6"/>
<ellipse cx="1105.23" cy="169.28" rx="1.01086" ry="1.10626" fill="white" fill-opacity="0.6"/>
<ellipse cx="1256.88" cy="169.28" rx="1.01089" ry="1.10626" fill="white" fill-opacity="0.6"/>
<ellipse cx="1408.52" cy="169.28" rx="1.01096" ry="1.10626" fill="white" fill-opacity="0.6"/>
<ellipse cx="1560.15" cy="169.28" rx="1.01096" ry="1.10626" fill="white" fill-opacity="0.6"/>
<ellipse cx="225.74" cy="279.902" rx="1.01093" ry="1.10623" fill="white" fill-opacity="0.6"/>
<ellipse cx="377.366" cy="279.902" rx="1.01092" ry="1.10623" fill="white" fill-opacity="0.6"/>
<ellipse cx="529.01" cy="279.902" rx="1.01098" ry="1.10623" fill="white" fill-opacity="0.6"/>
<ellipse cx="680.654" cy="279.902" rx="1.01092" ry="1.10623" fill="white" fill-opacity="0.6"/>
<ellipse cx="832.286" cy="279.902" rx="1.01092" ry="1.10623" fill="white" fill-opacity="0.6"/>
<ellipse cx="983.924" cy="279.902" rx="1.01103" ry="1.10623" fill="white" fill-opacity="0.6"/>
<ellipse cx="1135.57" cy="279.902" rx="1.01096" ry="1.10623" fill="white" fill-opacity="0.6"/>
<ellipse cx="1287.2" cy="279.902" rx="1.01096" ry="1.10623" fill="white" fill-opacity="0.6"/>
<ellipse cx="1438.84" cy="279.902" rx="1.01089" ry="1.10623" fill="white" fill-opacity="0.6"/>
<ellipse cx="1590.48" cy="279.902" rx="1.0113" ry="1.10623" fill="white" fill-opacity="0.6"/>
<ellipse cx="175.188" cy="392.736" rx="1.01093" ry="1.10623" fill="white" fill-opacity="0.6"/>
<ellipse cx="326.832" cy="392.736" rx="1.01094" ry="1.10623" fill="white" fill-opacity="0.6"/>
<ellipse cx="478.476" cy="392.736" rx="1.01092" ry="1.10623" fill="white" fill-opacity="0.6"/>
<ellipse cx="630.102" cy="392.736" rx="1.01089" ry="1.10623" fill="white" fill-opacity="0.6"/>
<ellipse cx="781.746" cy="392.736" rx="1.01092" ry="1.10623" fill="white" fill-opacity="0.6"/>
<ellipse cx="933.39" cy="392.736" rx="1.01092" ry="1.10623" fill="white" fill-opacity="0.6"/>
<ellipse cx="1085.02" cy="392.736" rx="1.01092" ry="1.10623" fill="white" fill-opacity="0.6"/>
<ellipse cx="1236.66" cy="392.736" rx="1.01089" ry="1.10623" fill="white" fill-opacity="0.6"/>
<ellipse cx="1388.3" cy="392.736" rx="1.01096" ry="1.10623" fill="white" fill-opacity="0.6"/>
<ellipse cx="1539.93" cy="392.736" rx="1.01096" ry="1.10623" fill="white" fill-opacity="0.6"/>
<ellipse cx="235.848" cy="503.358" rx="1.01092" ry="1.1062" fill="white" fill-opacity="0.6"/>
<ellipse cx="387.492" cy="503.358" rx="1.01092" ry="1.1062" fill="white" fill-opacity="0.6"/>
<ellipse cx="539.118" cy="503.358" rx="1.01091" ry="1.1062" fill="white" fill-opacity="0.6"/>
<ellipse cx="690.762" cy="503.358" rx="1.01096" ry="1.1062" fill="white" fill-opacity="0.6"/>
<ellipse cx="842.406" cy="503.358" rx="1.01092" ry="1.1062" fill="white" fill-opacity="0.6"/>
<ellipse cx="994.032" cy="503.358" rx="1.01092" ry="1.1062" fill="white" fill-opacity="0.6"/>
<ellipse cx="1145.68" cy="503.358" rx="1.01089" ry="1.1062" fill="white" fill-opacity="0.6"/>
<ellipse cx="1297.32" cy="503.358" rx="1.01096" ry="1.1062" fill="white" fill-opacity="0.6"/>
<ellipse cx="1448.95" cy="503.358" rx="1.01096" ry="1.1062" fill="white" fill-opacity="0.6"/>
<ellipse cx="215.632" cy="613.981" rx="1.01092" ry="1.10623" fill="white" fill-opacity="0.6"/>
<ellipse cx="367.258" cy="613.981" rx="1.01094" ry="1.10623" fill="white" fill-opacity="0.6"/>
<ellipse cx="518.902" cy="613.981" rx="1.01087" ry="1.10623" fill="white" fill-opacity="0.6"/>
<ellipse cx="670.546" cy="613.981" rx="1.01096" ry="1.10623" fill="white" fill-opacity="0.6"/>
<ellipse cx="822.178" cy="613.981" rx="1.01092" ry="1.10623" fill="white" fill-opacity="0.6"/>
<ellipse cx="973.816" cy="613.981" rx="1.01096" ry="1.10623" fill="white" fill-opacity="0.6"/>
<ellipse cx="1125.46" cy="613.981" rx="1.01103" ry="1.10623" fill="white" fill-opacity="0.6"/>
<ellipse cx="1277.09" cy="613.981" rx="1.01089" ry="1.10623" fill="white" fill-opacity="0.6"/>
<ellipse cx="1428.74" cy="613.981" rx="1.01096" ry="1.10623" fill="white" fill-opacity="0.6"/>
<ellipse cx="1580.37" cy="613.981" rx="1.01075" ry="1.10623" fill="white" fill-opacity="0.6"/>
<ellipse cx="276.28" cy="724.603" rx="1.01092" ry="1.10623" fill="white" fill-opacity="0.6"/>
<ellipse cx="427.918" cy="724.603" rx="1.01091" ry="1.10623" fill="white" fill-opacity="0.6"/>
<ellipse cx="579.562" cy="724.603" rx="1.01098" ry="1.10623" fill="white" fill-opacity="0.6"/>
<ellipse cx="731.194" cy="724.603" rx="1.01092" ry="1.10623" fill="white" fill-opacity="0.6"/>
<ellipse cx="882.838" cy="724.603" rx="1.01092" ry="1.10623" fill="white" fill-opacity="0.6"/>
<ellipse cx="1034.48" cy="724.603" rx="1.01103" ry="1.10623" fill="white" fill-opacity="0.6"/>
<ellipse cx="1186.11" cy="724.603" rx="1.01089" ry="1.10623" fill="white" fill-opacity="0.6"/>
<ellipse cx="1337.75" cy="724.603" rx="1.01096" ry="1.10623" fill="white" fill-opacity="0.6"/>
<ellipse cx="1489.4" cy="724.603" rx="1.01089" ry="1.10623" fill="white" fill-opacity="0.6"/>
<ellipse cx="1641.02" cy="722.391" rx="1.01069" ry="1.1062" fill="white" fill-opacity="0.6"/>
<ellipse cx="195.404" cy="835.225" rx="1.01092" ry="1.10625" fill="white" fill-opacity="0.6"/>
<ellipse cx="347.048" cy="835.225" rx="1.01092" ry="1.10625" fill="white" fill-opacity="0.6"/>
<ellipse cx="498.686" cy="835.225" rx="1.01089" ry="1.10625" fill="white" fill-opacity="0.6"/>
<ellipse cx="650.318" cy="835.225" rx="1.01092" ry="1.10625" fill="white" fill-opacity="0.6"/>
<ellipse cx="801.962" cy="835.225" rx="1.01096" ry="1.10625" fill="white" fill-opacity="0.6"/>
<ellipse cx="953.606" cy="835.225" rx="1.01096" ry="1.10625" fill="white" fill-opacity="0.6"/>
<ellipse cx="1105.23" cy="835.225" rx="1.01086" ry="1.10625" fill="white" fill-opacity="0.6"/>
<ellipse cx="1256.88" cy="835.225" rx="1.01089" ry="1.10625" fill="white" fill-opacity="0.6"/>
<ellipse cx="1408.52" cy="835.225" rx="1.01096" ry="1.10625" fill="white" fill-opacity="0.6"/>
<ellipse cx="1560.15" cy="835.225" rx="1.01096" ry="1.10625" fill="white" fill-opacity="0.6"/>
<ellipse cx="225.74" cy="945.847" rx="1.01093" ry="1.10625" fill="white" fill-opacity="0.6"/>
<ellipse cx="377.366" cy="945.847" rx="1.01092" ry="1.10625" fill="white" fill-opacity="0.6"/>
<ellipse cx="529.01" cy="945.847" rx="1.01098" ry="1.10625" fill="white" fill-opacity="0.6"/>
<ellipse cx="680.654" cy="945.847" rx="1.01092" ry="1.10625" fill="white" fill-opacity="0.6"/>
<ellipse cx="832.286" cy="945.847" rx="1.01092" ry="1.10625" fill="white" fill-opacity="0.6"/>
<ellipse cx="983.924" cy="945.847" rx="1.01103" ry="1.10625" fill="white" fill-opacity="0.6"/>
<ellipse cx="1135.57" cy="945.847" rx="1.01096" ry="1.10625" fill="white" fill-opacity="0.6"/>
<ellipse cx="1287.2" cy="945.847" rx="1.01096" ry="1.10625" fill="white" fill-opacity="0.6"/>
<ellipse cx="1438.84" cy="945.847" rx="1.01089" ry="1.10625" fill="white" fill-opacity="0.6"/>
<ellipse cx="1590.48" cy="945.847" rx="1.0113" ry="1.10625" fill="white" fill-opacity="0.6"/>
<ellipse cx="118.584" cy="102.906" rx="1.01092" ry="1.10626" fill="white" fill-opacity="0.6"/>
<ellipse cx="270.21" cy="102.906" rx="1.01092" ry="1.10626" fill="white" fill-opacity="0.6"/>
<ellipse cx="421.854" cy="102.906" rx="1.01092" ry="1.10626" fill="white" fill-opacity="0.6"/>
<ellipse cx="573.498" cy="102.906" rx="1.01089" ry="1.10626" fill="white" fill-opacity="0.6"/>
<ellipse cx="725.13" cy="102.906" rx="1.01092" ry="1.10626" fill="white" fill-opacity="0.6"/>
<ellipse cx="876.769" cy="102.906" rx="1.01092" ry="1.10626" fill="white" fill-opacity="0.6"/>
<ellipse cx="1028.41" cy="102.906" rx="1.01099" ry="1.10626" fill="white" fill-opacity="0.6"/>
<ellipse cx="1180.04" cy="102.906" rx="1.01089" ry="1.10626" fill="white" fill-opacity="0.6"/>
<ellipse cx="1331.69" cy="102.906" rx="1.01096" ry="1.10626" fill="white" fill-opacity="0.6"/>
<ellipse cx="1483.33" cy="102.906" rx="1.01089" ry="1.10626" fill="white" fill-opacity="0.6"/>
<ellipse cx="88.2483" cy="213.529" rx="1.01092" ry="1.1062" fill="white" fill-opacity="0.6"/>
<ellipse cx="239.892" cy="213.529" rx="1.01092" ry="1.1062" fill="white" fill-opacity="0.6"/>
<ellipse cx="391.53" cy="213.529" rx="1.01092" ry="1.1062" fill="white" fill-opacity="0.6"/>
<ellipse cx="543.162" cy="213.529" rx="1.01091" ry="1.1062" fill="white" fill-opacity="0.6"/>
<ellipse cx="694.807" cy="213.529" rx="1.01092" ry="1.1062" fill="white" fill-opacity="0.6"/>
<ellipse cx="846.451" cy="213.529" rx="1.01099" ry="1.1062" fill="white" fill-opacity="0.6"/>
<ellipse cx="998.077" cy="213.529" rx="1.01096" ry="1.1062" fill="white" fill-opacity="0.6"/>
<ellipse cx="1149.72" cy="213.529" rx="1.01092" ry="1.1062" fill="white" fill-opacity="0.6"/>
<ellipse cx="1301.36" cy="213.529" rx="1.01089" ry="1.1062" fill="white" fill-opacity="0.6"/>
<ellipse cx="1452.99" cy="213.529" rx="1.01089" ry="1.1062" fill="white" fill-opacity="0.6"/>
<ellipse cx="118.584" cy="324.151" rx="1.01092" ry="1.10623" fill="white" fill-opacity="0.6"/>
<ellipse cx="270.21" cy="324.151" rx="1.01092" ry="1.10623" fill="white" fill-opacity="0.6"/>
<ellipse cx="421.854" cy="324.151" rx="1.01092" ry="1.10623" fill="white" fill-opacity="0.6"/>
<ellipse cx="573.498" cy="324.151" rx="1.01089" ry="1.10623" fill="white" fill-opacity="0.6"/>
<ellipse cx="725.13" cy="324.151" rx="1.01092" ry="1.10623" fill="white" fill-opacity="0.6"/>
<ellipse cx="876.769" cy="324.151" rx="1.01092" ry="1.10623" fill="white" fill-opacity="0.6"/>
<ellipse cx="1028.41" cy="324.151" rx="1.01099" ry="1.10623" fill="white" fill-opacity="0.6"/>
<ellipse cx="1180.04" cy="324.151" rx="1.01089" ry="1.10623" fill="white" fill-opacity="0.6"/>
<ellipse cx="1331.69" cy="324.151" rx="1.01096" ry="1.10623" fill="white" fill-opacity="0.6"/>
<ellipse cx="1483.33" cy="324.151" rx="1.01089" ry="1.10623" fill="white" fill-opacity="0.6"/>
<ellipse cx="68.0321" cy="436.985" rx="1.01092" ry="1.1062" fill="white" fill-opacity="0.6"/>
<ellipse cx="219.676" cy="436.985" rx="1.01091" ry="1.1062" fill="white" fill-opacity="0.6"/>
<ellipse cx="371.32" cy="436.985" rx="1.01092" ry="1.1062" fill="white" fill-opacity="0.6"/>
<ellipse cx="522.946" cy="436.985" rx="1.01092" ry="1.1062" fill="white" fill-opacity="0.6"/>
<ellipse cx="674.591" cy="436.985" rx="1.01096" ry="1.1062" fill="white" fill-opacity="0.6"/>
<ellipse cx="826.235" cy="436.985" rx="1.01096" ry="1.1062" fill="white" fill-opacity="0.6"/>
<ellipse cx="977.86" cy="436.985" rx="1.01079" ry="1.1062" fill="white" fill-opacity="0.6"/>
<ellipse cx="1129.5" cy="436.985" rx="1.01089" ry="1.1062" fill="white" fill-opacity="0.6"/>
<ellipse cx="1281.15" cy="436.985" rx="1.01089" ry="1.1062" fill="white" fill-opacity="0.6"/>
<ellipse cx="1432.77" cy="436.985" rx="1.01096" ry="1.1062" fill="white" fill-opacity="0.6"/>
<ellipse cx="128.692" cy="547.607" rx="1.01092" ry="1.10623" fill="white" fill-opacity="0.6"/>
<ellipse cx="280.336" cy="547.607" rx="1.01092" ry="1.10623" fill="white" fill-opacity="0.6"/>
<ellipse cx="431.962" cy="547.607" rx="1.01092" ry="1.10623" fill="white" fill-opacity="0.6"/>
<ellipse cx="583.607" cy="547.607" rx="1.01092" ry="1.10623" fill="white" fill-opacity="0.6"/>
<ellipse cx="735.25" cy="547.607" rx="1.01096" ry="1.10623" fill="white" fill-opacity="0.6"/>
<ellipse cx="886.877" cy="547.607" rx="1.01082" ry="1.10623" fill="white" fill-opacity="0.6"/>
<ellipse cx="1038.52" cy="547.607" rx="1.01096" ry="1.10623" fill="white" fill-opacity="0.6"/>
<ellipse cx="1190.16" cy="547.607" rx="1.01089" ry="1.10623" fill="white" fill-opacity="0.6"/>
<ellipse cx="1341.8" cy="547.607" rx="1.01096" ry="1.10623" fill="white" fill-opacity="0.6"/>
<ellipse cx="108.476" cy="658.229" rx="1.01092" ry="1.1062" fill="white" fill-opacity="0.6"/>
<ellipse cx="260.102" cy="658.229" rx="1.01092" ry="1.1062" fill="white" fill-opacity="0.6"/>
<ellipse cx="411.746" cy="658.229" rx="1.01092" ry="1.1062" fill="white" fill-opacity="0.6"/>
<ellipse cx="563.39" cy="658.229" rx="1.01089" ry="1.1062" fill="white" fill-opacity="0.6"/>
<ellipse cx="715.022" cy="658.229" rx="1.01096" ry="1.1062" fill="white" fill-opacity="0.6"/>
<ellipse cx="866.661" cy="658.229" rx="1.01103" ry="1.1062" fill="white" fill-opacity="0.6"/>
<ellipse cx="1018.3" cy="658.229" rx="1.01096" ry="1.1062" fill="white" fill-opacity="0.6"/>
<ellipse cx="1169.94" cy="658.229" rx="1.01089" ry="1.1062" fill="white" fill-opacity="0.6"/>
<ellipse cx="1321.58" cy="658.229" rx="1.01089" ry="1.1062" fill="white" fill-opacity="0.6"/>
<ellipse cx="1473.22" cy="658.229" rx="1.01096" ry="1.1062" fill="white" fill-opacity="0.6"/>
<ellipse cx="169.124" cy="768.852" rx="1.01092" ry="1.10626" fill="white" fill-opacity="0.6"/>
<ellipse cx="320.762" cy="768.852" rx="1.01092" ry="1.10626" fill="white" fill-opacity="0.6"/>
<ellipse cx="472.406" cy="768.852" rx="1.01092" ry="1.10626" fill="white" fill-opacity="0.6"/>
<ellipse cx="624.038" cy="768.852" rx="1.01096" ry="1.10626" fill="white" fill-opacity="0.6"/>
<ellipse cx="775.683" cy="768.852" rx="1.01096" ry="1.10626" fill="white" fill-opacity="0.6"/>
<ellipse cx="927.321" cy="768.852" rx="1.01092" ry="1.10626" fill="white" fill-opacity="0.6"/>
<ellipse cx="1078.95" cy="768.852" rx="1.01079" ry="1.10626" fill="white" fill-opacity="0.6"/>
<ellipse cx="1230.6" cy="768.852" rx="1.01089" ry="1.10626" fill="white" fill-opacity="0.6"/>
<ellipse cx="1382.24" cy="768.852" rx="1.01096" ry="1.10626" fill="white" fill-opacity="0.6"/>
<ellipse cx="1533.87" cy="768.852" rx="1.01089" ry="1.10626" fill="white" fill-opacity="0.6"/>
<ellipse cx="88.2483" cy="879.474" rx="1.01092" ry="1.10619" fill="white" fill-opacity="0.6"/>
<ellipse cx="239.892" cy="879.474" rx="1.01092" ry="1.10619" fill="white" fill-opacity="0.6"/>
<ellipse cx="391.53" cy="879.474" rx="1.01092" ry="1.10619" fill="white" fill-opacity="0.6"/>
<ellipse cx="543.162" cy="879.474" rx="1.01091" ry="1.10619" fill="white" fill-opacity="0.6"/>
<ellipse cx="694.807" cy="879.474" rx="1.01092" ry="1.10619" fill="white" fill-opacity="0.6"/>
<ellipse cx="846.451" cy="879.474" rx="1.01099" ry="1.10619" fill="white" fill-opacity="0.6"/>
<ellipse cx="998.077" cy="879.474" rx="1.01096" ry="1.10619" fill="white" fill-opacity="0.6"/>
<ellipse cx="1149.72" cy="879.474" rx="1.01092" ry="1.10619" fill="white" fill-opacity="0.6"/>
<ellipse cx="1301.36" cy="879.474" rx="1.01089" ry="1.10619" fill="white" fill-opacity="0.6"/>
<ellipse cx="1452.99" cy="879.474" rx="1.01089" ry="1.10619" fill="white" fill-opacity="0.6"/>
<ellipse cx="118.584" cy="990.096" rx="1.01092" ry="1.10626" fill="white" fill-opacity="0.6"/>
<ellipse cx="270.21" cy="990.096" rx="1.01092" ry="1.10626" fill="white" fill-opacity="0.6"/>
<ellipse cx="421.854" cy="990.096" rx="1.01092" ry="1.10626" fill="white" fill-opacity="0.6"/>
<ellipse cx="573.498" cy="990.096" rx="1.01089" ry="1.10626" fill="white" fill-opacity="0.6"/>
<ellipse cx="725.13" cy="990.096" rx="1.01092" ry="1.10626" fill="white" fill-opacity="0.6"/>
<ellipse cx="876.769" cy="990.096" rx="1.01092" ry="1.10626" fill="white" fill-opacity="0.6"/>
<ellipse cx="1028.41" cy="990.096" rx="1.01099" ry="1.10626" fill="white" fill-opacity="0.6"/>
<ellipse cx="1180.04" cy="990.096" rx="1.01089" ry="1.10626" fill="white" fill-opacity="0.6"/>
<ellipse cx="1331.69" cy="990.096" rx="1.01096" ry="1.10626" fill="white" fill-opacity="0.6"/>
<ellipse cx="1483.33" cy="990.096" rx="1.01089" ry="1.10626" fill="white" fill-opacity="0.6"/>
<ellipse cx="122.642" cy="92.9507" rx="2.02184" ry="2.2124" fill="white" fill-opacity="0.6"/>
<ellipse cx="425.912" cy="104.013" rx="2.02185" ry="2.21246" fill="white" fill-opacity="0.6"/>
<ellipse cx="729.182" cy="92.9507" rx="2.02185" ry="2.2124" fill="white" fill-opacity="0.6"/>
<ellipse cx="1032.47" cy="81.8882" rx="2.02178" ry="2.21246" fill="white" fill-opacity="0.6"/>
<ellipse cx="1335.74" cy="92.9507" rx="2.02185" ry="2.2124" fill="white" fill-opacity="0.6"/>
<ellipse cx="1639.02" cy="104.013" rx="2.02158" ry="2.21246" fill="white" fill-opacity="0.6"/>
<ellipse cx="243.944" cy="314.195" rx="2.02183" ry="2.21243" fill="white" fill-opacity="0.6"/>
<ellipse cx="547.22" cy="325.257" rx="2.0218" ry="2.21246" fill="white" fill-opacity="0.6"/>
<ellipse cx="850.502" cy="314.195" rx="2.02178" ry="2.21243" fill="white" fill-opacity="0.6"/>
<ellipse cx="1153.78" cy="303.133" rx="2.02185" ry="2.21246" fill="white" fill-opacity="0.6"/>
<ellipse cx="1457.05" cy="314.195" rx="2.02185" ry="2.21243" fill="white" fill-opacity="0.6"/>
<ellipse cx="193.41" cy="537.651" rx="2.02185" ry="2.21243" fill="white" fill-opacity="0.6"/>
<ellipse cx="496.68" cy="548.714" rx="2.02185" ry="2.21246" fill="white" fill-opacity="0.6"/>
<ellipse cx="799.95" cy="537.651" rx="2.02185" ry="2.21243" fill="white" fill-opacity="0.6"/>
<ellipse cx="1103.24" cy="526.589" rx="2.02192" ry="2.21246" fill="white" fill-opacity="0.6"/>
<ellipse cx="1406.51" cy="537.651" rx="2.02178" ry="2.21243" fill="white" fill-opacity="0.6"/>
<ellipse cx="1709.78" cy="546.502" rx="2.02185" ry="2.21243" fill="white" fill-opacity="0.6"/>
<ellipse cx="142.852" cy="758.896" rx="2.02185" ry="2.21249" fill="white" fill-opacity="0.6"/>
<ellipse cx="446.128" cy="769.958" rx="2.02183" ry="2.21249" fill="white" fill-opacity="0.6"/>
<ellipse cx="749.41" cy="758.896" rx="2.02181" ry="2.21249" fill="white" fill-opacity="0.6"/>
<ellipse cx="1052.69" cy="747.834" rx="2.02195" ry="2.21243" fill="white" fill-opacity="0.6"/>
<ellipse cx="1355.96" cy="758.896" rx="2.02185" ry="2.21249" fill="white" fill-opacity="0.6"/>
<ellipse cx="1659.24" cy="767.746" rx="2.02158" ry="2.21246" fill="white" fill-opacity="0.6"/>
<ellipse cx="304.604" cy="980.14" rx="2.02187" ry="2.21246" fill="white" fill-opacity="0.6"/>
<ellipse cx="607.88" cy="991.203" rx="2.02185" ry="2.21249" fill="white" fill-opacity="0.6"/>
<ellipse cx="911.15" cy="980.14" rx="2.02181" ry="2.21246" fill="white" fill-opacity="0.6"/>
<ellipse cx="1214.44" cy="969.078" rx="2.02185" ry="2.21245" fill="white" fill-opacity="0.6"/>
<ellipse cx="1517.71" cy="980.14" rx="2.02185" ry="2.21246" fill="white" fill-opacity="0.6"/>
<ellipse cx="345.034" cy="4.45258" rx="2.02183" ry="2.21246" fill="white" fill-opacity="0.6"/>
<ellipse cx="1558.14" cy="4.45258" rx="2.02192" ry="2.21246" fill="white" fill-opacity="0.6"/>
<ellipse cx="284.374" cy="225.697" rx="2.02185" ry="2.21246" fill="white" fill-opacity="0.6"/>
<ellipse cx="587.644" cy="214.635" rx="2.02185" ry="2.21246" fill="white" fill-opacity="0.6"/>
<ellipse cx="890.933" cy="203.573" rx="2.02195" ry="2.2124" fill="white" fill-opacity="0.6"/>
<ellipse cx="1194.2" cy="214.635" rx="2.02192" ry="2.21246" fill="white" fill-opacity="0.6"/>
<ellipse cx="1497.48" cy="225.697" rx="2.02178" ry="2.21246" fill="white" fill-opacity="0.6"/>
<ellipse cx="102.406" cy="438.091" rx="2.02184" ry="2.21246" fill="white" fill-opacity="0.6"/>
<ellipse cx="405.682" cy="449.153" rx="2.02183" ry="2.21243" fill="white" fill-opacity="0.6"/>
<ellipse cx="708.964" cy="438.091" rx="2.02185" ry="2.21246" fill="white" fill-opacity="0.6"/>
<ellipse cx="1012.24" cy="427.029" rx="2.02188" ry="2.21243" fill="white" fill-opacity="0.6"/>
<ellipse cx="1315.51" cy="438.091" rx="2.02178" ry="2.21246" fill="white" fill-opacity="0.6"/>
<ellipse cx="1618.8" cy="446.942" rx="2.02185" ry="2.21243" fill="white" fill-opacity="0.6"/>
<ellipse cx="51.8721" cy="659.336" rx="2.02184" ry="2.2124" fill="white" fill-opacity="0.6"/>
<ellipse cx="355.142" cy="670.398" rx="2.02183" ry="2.21246" fill="white" fill-opacity="0.6"/>
<ellipse cx="658.412" cy="659.336" rx="2.02181" ry="2.2124" fill="white" fill-opacity="0.6"/>
<ellipse cx="961.701" cy="648.274" rx="2.02195" ry="2.21246" fill="white" fill-opacity="0.6"/>
<ellipse cx="1264.97" cy="659.336" rx="2.02185" ry="2.2124" fill="white" fill-opacity="0.6"/>
<ellipse cx="1568.24" cy="670.398" rx="2.02185" ry="2.21246" fill="white" fill-opacity="0.6"/>
<ellipse cx="1.31396" cy="878.368" rx="2.02184" ry="2.21246" fill="white" fill-opacity="0.6"/>
<ellipse cx="304.59" cy="891.642" rx="2.02187" ry="2.21245" fill="white" fill-opacity="0.6"/>
<ellipse cx="607.872" cy="880.58" rx="2.02185" ry="2.21243" fill="white" fill-opacity="0.6"/>
<ellipse cx="911.148" cy="869.518" rx="2.02181" ry="2.21245" fill="white" fill-opacity="0.6"/>
<ellipse cx="1214.42" cy="880.58" rx="2.02185" ry="2.21243" fill="white" fill-opacity="0.6"/>
<ellipse cx="1517.71" cy="891.642" rx="2.02185" ry="2.21245" fill="white" fill-opacity="0.6"/>
</g>
</g>
<defs>
<clipPath id="clip0_102_1721">
<rect width="1734" height="1040" fill="white"/>
</clipPath>
</defs>
</svg>
