<svg width="24" height="24" viewBox="0 0 24 24" fill="none" xmlns="http://www.w3.org/2000/svg">
<circle cx="12" cy="12" r="12" fill="white"/>
<path d="M7.20002 5.3486L19.9543 14.0572L16.8 18.72L4.04573 9.94289L7.20002 5.3486Z" fill="url(#paint0_linear_204_1088)"/>
<path d="M19.9543 14.0571C18.8571 15.6343 15.1543 15.0171 11.6571 12.5486C8.09141 10.1486 6.17141 6.9257 7.19998 5.34855C8.29712 3.77141 12 4.38855 15.4971 6.85712C19.0628 9.18855 20.9828 12.48 19.9543 14.0571Z" fill="url(#paint1_linear_204_1088)"/>
<path d="M16.8 18.6515C15.7029 20.2286 12 19.6115 8.50286 17.1429C5.00572 14.6743 3.01715 11.52 4.11429 9.87431C5.21144 8.29717 8.91429 8.91431 12.4114 11.3829C15.9086 13.8515 17.8286 17.0743 16.8 18.6515Z" fill="url(#paint2_linear_204_1088)"/>
<path d="M19.9543 14.0571L16.8 18.72C15.7028 20.2971 12 19.6114 8.50285 17.2114C7.81713 16.7314 7.19999 16.2514 6.58285 15.7028C7.06285 15.6343 7.67999 15.36 8.29713 14.6743C9.39428 13.5085 9.94285 13.2343 10.4228 13.3028C10.9028 13.3028 11.4514 13.7828 12.3428 14.9485C13.2343 16.1143 14.4686 16.4571 15.2228 15.84C15.2914 15.7714 15.36 15.7714 15.4286 15.7028C16.0457 15.2228 16.2514 15.0171 17.4171 12.8228C17.6914 12.2743 18.6514 11.3828 19.9543 11.7943C20.2971 12.6857 20.2971 13.44 19.9543 14.0571Z" fill="#0E0F23"/>
<path fill-rule="evenodd" clip-rule="evenodd" d="M19.4743 13.7829C18.5143 15.1543 15.1543 14.4686 11.9314 12.2057C8.64001 9.94286 6.72001 7.06286 7.68001 5.69143C8.64001 4.32001 12 5.00572 15.2229 7.26858C18.4457 9.53143 20.3657 12.4114 19.4743 13.7829ZM16.4572 11.7257C15.9772 12.4114 14.3314 12.0686 12.6857 10.9714C11.1086 9.87429 10.1486 8.43429 10.6286 7.74858C11.1086 7.06286 12.7543 7.40572 14.4 8.50286C15.9772 9.60001 16.9372 11.04 16.4572 11.7257Z" fill="white"/>
<path d="M6.92569 6.92568C6.92569 6.85711 6.85712 6.78854 6.78855 6.85711C6.71998 6.92568 6.65141 6.92568 6.65141 6.99425C6.71998 7.19996 6.78855 7.33711 6.78855 7.47425C6.78855 7.54282 6.85712 7.61139 6.92569 7.54282C6.99426 7.54282 7.06283 7.47425 6.99426 7.40568C6.99426 7.26854 6.99426 7.13139 6.92569 6.92568Z" fill="white"/>
<path d="M7.2686 8.02288C7.2686 7.95431 7.20003 7.88574 7.13146 7.95431C7.06289 8.02288 7.06289 8.02288 7.06289 8.09145C7.81717 9.80574 9.39432 11.6572 11.4515 13.0286C11.52 13.0972 11.5886 13.0286 11.6572 13.0286C11.7257 12.96 11.6572 12.8914 11.6572 12.8229C9.53146 11.4514 8.02289 9.66859 7.2686 8.02288Z" fill="white"/>
<path d="M15.5657 14.7429C15.4971 14.7429 15.4286 14.7429 15.4286 14.8114C15.4286 14.88 15.4286 14.9486 15.4971 14.9486C15.7029 15.0171 15.9771 15.0857 16.1829 15.1543C16.2514 15.1543 16.32 15.1543 16.32 15.0857C16.32 15.0171 16.32 14.9486 16.2514 14.9486C16.0457 14.88 15.7714 14.8114 15.5657 14.7429Z" fill="white"/>
<path d="M16.8 15.0171C16.7315 15.0171 16.6629 15.0857 16.6629 15.1542C16.6629 15.2228 16.7315 15.2914 16.8 15.2914C17.3486 15.3599 17.9657 15.4285 18.4457 15.3599C18.5143 15.3599 18.5829 15.2914 18.5829 15.2228C18.5829 15.1542 18.5143 15.0857 18.4457 15.0857C17.8972 15.1542 17.3486 15.0857 16.8 15.0171Z" fill="white"/>
<defs>
<linearGradient id="paint0_linear_204_1088" x1="9.6989" y1="4.11041" x2="12.2282" y2="12.7958" gradientUnits="userSpaceOnUse">
<stop stop-color="#03B8FF"/>
<stop offset="1" stop-color="#FA52A0"/>
</linearGradient>
<linearGradient id="paint1_linear_204_1088" x1="11.7818" y1="3.50371" x2="14.3112" y2="12.1892" gradientUnits="userSpaceOnUse">
<stop stop-color="#03B8FF"/>
<stop offset="1" stop-color="#FA52A0"/>
</linearGradient>
<linearGradient id="paint2_linear_204_1088" x1="7.62241" y1="4.71506" x2="10.1518" y2="13.4005" gradientUnits="userSpaceOnUse">
<stop stop-color="#03B8FF"/>
<stop offset="1" stop-color="#FA52A0"/>
</linearGradient>
</defs>
</svg>
