<svg width="32" height="32" viewBox="0 0 32 32" fill="none" xmlns="http://www.w3.org/2000/svg">
<circle cx="16" cy="16" r="16" fill="#26A17B"/>
<path d="M17.7669 17.3527V17.3501C17.6548 17.3578 17.0765 17.3912 15.7897 17.3912C14.7607 17.3912 14.0391 17.3629 13.7838 17.3501V17.3527C9.82689 17.1808 6.87545 16.5036 6.87545 15.6904C6.87545 14.8798 9.82949 14.2 13.7838 14.0281V16.678C14.0417 16.696 14.7842 16.7396 15.8079 16.7396C17.0375 16.7396 17.6522 16.6883 17.7669 16.678V14.0307C21.716 14.2051 24.6596 14.8823 24.6596 15.693C24.6596 16.5036 21.7134 17.1808 17.7669 17.3552V17.3527ZM17.7669 13.7562V11.3859H23.2764V7.77142H8.27693V11.3859H13.7865V13.7562C9.3085 13.9588 5.94287 14.831 5.94287 15.8777C5.94287 16.9243 9.3111 17.7965 13.7865 18.0017V25.6H17.7695V18.0017C22.2396 17.799 25.6 16.9268 25.6 15.8802C25.6 14.8362 22.2396 13.9614 17.7695 13.7587" fill="white"/>
</svg>
